<?xml version="1.0" encoding="utf-8"?>
<!-- Generator: Adobe Illustrator 27.8.1, SVG Export Plug-In . SVG Version: 6.00 Build 0)  -->
<svg version="1.1" id="logo_00000157293593277924152510000014162580761797005492_"
	 xmlns="http://www.w3.org/2000/svg" xmlns:xlink="http://www.w3.org/1999/xlink" x="0px" y="0px" viewBox="0 0 1024 1024"
	 style="enable-background:new 0 0 1024 1024;" xml:space="preserve">
<path id="base" style="fill:#c4962a;" d="M276,656.2c12.2-12.2,12.2-32.1,0-44.3L23.3,359.2c-12.2-12.2-12.2-32.1,0-44.3L282.5,55.7
	c5.8-5.8,13.8-9.2,22.1-9.2h603.7c11.4,0,21.4,6.2,26.9,15.2l-348,348c-13-9.6-27.8-16.7-43.9-20.8l29.6-29.6l61.1-61.1l68.6-68.6
	c19.8-19.7,5.7-53.5-22.1-53.5H304.6c-8.3,0-16.3,3.3-22.1,9.2L149.1,318.7c-12.2,12.2-12.2,32.1,0,44.3l188,188
	c12.2,12.2,32.1,12.2,44.3,0l7.5-7.5c4.1,16,11.2,30.9,20.8,43.8L84.3,912.7v-64.8h0.1L276,656.2z M1000.7,664.7L958,622.1L748,412
	c-12.2-12.2-12.2-32.1,0-44.3l191.6-191.6h0.1v-68L612.9,434.9c10.3,13.4,17.9,28.9,22.2,45.7l7.6-7.6c12.2-12.2,32.1-12.2,44.3,0
	l187.9,187.9c12.2,12.3,12.2,32.2,0,44.4L741.5,838.7c-5.8,5.8-13.8,9.2-22.1,9.2H343.4c-27.9,0-41.9-33.8-22.1-53.5l68.6-68.6
	l61.1-61.1l29.6-29.6c-16.8-4.3-32.3-11.9-45.7-22.2L87.7,960.1c5.2,10.3,15.8,17.4,28.1,17.4h603.7c8.3,0,16.3-3.3,22.1-9.2
	L1000.9,709C1013,696.8,1013,677,1000.7,664.7z M617.8,595.2C559.4,595.2,512,642.5,512,701s47.4,105.8,105.8,105.8
	c58.5,0,105.8-47.4,105.8-105.8S676.3,595.2,617.8,595.2z M512,428.8c-45.9,0-83.2,37.2-83.2,83.2s37.2,83.2,83.2,83.2
	s83.2-37.2,83.2-83.2S557.9,428.8,512,428.8z M406.2,217.2c-58.5,0-105.8,47.4-105.8,105.8s47.4,105.8,105.8,105.8
	S512,381.5,512,323S464.6,217.2,406.2,217.2z"/>
</svg>
